<?xml version="1.0" standalone="no"?>
<!DOCTYPE svg PUBLIC "-//W3C//DTD SVG 20010904//EN"
 "http://www.w3.org/TR/2001/REC-SVG-20010904/DTD/svg10.dtd">
<svg version="1.0" xmlns="http://www.w3.org/2000/svg"
 width="500.000000pt" height="259.000000pt" viewBox="0 0 500.000000 259.000000"
 preserveAspectRatio="xMidYMid meet">

<g transform="translate(0.000000,259.000000) scale(0.100000,-0.100000)"
fill="#000000" stroke="none">
<path d="M2182 2550 c0 -14 2 -19 5 -12 2 6 2 18 0 25 -3 6 -5 1 -5 -13z"/>
<path d="M2392 2515 c0 -16 2 -22 5 -12 2 9 2 23 0 30 -3 6 -5 -1 -5 -18z"/>
<path d="M2192 2500 c0 -14 2 -19 5 -12 2 6 2 18 0 25 -3 6 -5 1 -5 -13z"/>
<path d="M2626 2505 c-9 -26 -7 -32 5 -12 6 10 9 21 6 23 -2 3 -7 -2 -11 -11z"/>
<path d="M2201 2454 c0 -11 3 -14 6 -6 3 7 2 16 -1 19 -3 4 -6 -2 -5 -13z"/>
<path d="M2592 2425 c-12 -25 -20 -45 -17 -45 7 0 47 81 43 86 -3 2 -14 -17
-26 -41z"/>
<path d="M2935 2446 c-41 -18 -83 -69 -91 -111 -15 -82 24 -151 100 -180 28
-11 46 -25 50 -39 6 -20 7 -20 34 10 15 16 40 37 55 44 71 35 98 141 55 214
-40 68 -128 95 -203 62z m100 -50 c15 -23 14 -42 -11 -134 -2 -8 -12 -12 -21
-10 -19 4 -21 24 -8 91 7 35 6 37 -19 37 -19 0 -26 -5 -26 -20 0 -20 -32 -44
-44 -33 -13 14 -5 45 19 68 33 34 88 34 110 1z m13 -177 c4 -21 -35 -32 -42
-12 -4 8 -3 19 0 24 9 15 38 6 42 -12z"/>
<path d="M1970 2396 c0 -2 14 -14 30 -26 17 -12 30 -19 30 -16 0 2 -13 14 -30
26 -16 12 -30 19 -30 16z"/>
<path d="M2344 2236 c-31 -23 -22 -145 26 -385 36 -178 42 -227 26 -210 -3 2
-21 92 -40 199 -53 293 -84 380 -136 380 -26 0 -50 -37 -50 -78 0 -63 49 -124
111 -137 17 -4 32 -12 35 -19 3 -7 18 -86 34 -177 19 -113 25 -166 17 -171 -5
-3 -30 -9 -55 -13 l-44 -7 6 -39 6 -39 -75 0 c-48 0 -74 -4 -70 -10 3 -5 37
-10 76 -10 52 0 69 -3 69 -14 0 -7 7 -20 16 -27 9 -8 25 -33 35 -57 24 -56 74
-80 131 -62 44 12 78 58 78 102 0 48 39 58 232 58 105 0 168 4 168 10 0 6 -67
10 -180 10 l-179 0 -7 50 c-10 78 -19 85 -87 70 -32 -7 -59 -11 -61 -9 -2 2
-20 81 -39 174 l-35 170 25 21 c61 52 81 130 48 193 -21 41 -48 50 -81 27z
m65 -22 c25 -31 28 -92 7 -132 -18 -35 -54 -67 -64 -58 -13 14 -15 185 -2 201
18 22 36 18 59 -11z m-150 -34 c21 -35 56 -158 48 -167 -4 -3 -19 0 -36 6 -71
30 -111 114 -77 166 22 33 42 32 65 -5z m290 -573 c0 -21 -1 -21 -9 -2 -12 28
-12 37 0 30 6 -3 10 -16 9 -28z m8 -59 c-3 -8 -6 -5 -6 6 -1 11 2 17 5 13 3
-3 4 -12 1 -19z"/>
<path d="M1813 2173 c9 -2 25 -2 35 0 9 3 1 5 -18 5 -19 0 -27 -2 -17 -5z"/>
<path d="M1898 2163 c7 -3 16 -2 19 1 4 3 -2 6 -13 5 -11 0 -14 -3 -6 -6z"/>
<path d="M3296 2056 c-72 -31 -119 -67 -168 -132 -51 -66 -67 -103 -79 -175
-23 -144 47 -299 178 -390 18 -12 22 -27 25 -79 3 -74 18 -86 59 -48 69 64 91
78 113 72 34 -8 142 13 201 40 111 51 192 159 216 287 30 166 -64 345 -219
417 -48 22 -74 27 -162 29 -93 3 -112 1 -164 -21z m227 -80 c51 -19 75 -42 88
-87 18 -59 5 -99 -56 -169 -30 -35 -57 -70 -59 -79 -2 -9 -7 -28 -10 -43 -6
-26 -10 -28 -56 -28 -49 0 -50 1 -50 30 0 45 22 88 74 148 68 79 74 130 16
151 -45 15 -88 -3 -98 -42 -8 -30 -11 -32 -60 -35 -50 -3 -52 -2 -52 23 0 60
45 116 109 135 41 13 112 10 154 -4z m-35 -498 l-3 -43 -55 0 -55 0 -3 43 -3
42 61 0 61 0 -3 -42z"/>
<path d="M391 1424 c0 -45 6 -121 14 -168 16 -90 83 -312 92 -303 2 3 -10 49
-27 103 -42 133 -60 220 -69 344 l-8 105 -2 -81z"/>
<path d="M4598 1345 c-8 -115 -31 -226 -74 -358 -14 -43 -24 -81 -21 -84 9 -8
75 213 92 309 9 47 15 121 13 165 l-3 78 -7 -110z"/>
<path d="M1277 1429 c-336 -38 -492 -452 -263 -697 43 -46 45 -51 35 -81 -9
-26 -16 -31 -43 -31 -42 0 -47 -6 -34 -36 26 -56 190 -137 280 -138 49 -1 56
9 31 42 -20 27 -20 29 -2 63 17 34 21 36 82 42 303 28 475 346 336 619 -51
100 -178 195 -284 213 -22 4 -47 8 -55 9 -8 2 -46 0 -83 -5z m178 -154 c175
-85 218 -310 88 -455 -175 -195 -487 -91 -510 169 -21 227 216 387 422 286z"/>
<path d="M1276 1059 c-35 -28 -36 -80 -1 -114 49 -49 125 -16 125 55 0 30 -6
43 -26 59 -15 12 -37 21 -49 21 -12 0 -34 -9 -49 -21z m97 -24 c1 -5 -6 -11
-15 -13 -11 -2 -18 3 -18 13 0 17 30 18 33 0z"/>
<path d="M3847 1240 c-53 -9 -112 -49 -129 -86 -10 -21 -18 -24 -62 -24 -96
-1 -162 -51 -181 -137 -9 -44 4 -41 40 9 17 23 35 43 40 44 6 2 17 -11 26 -29
8 -17 31 -40 49 -49 30 -15 36 -16 50 -3 44 40 61 -16 19 -61 -23 -25 -24 -70
-2 -125 l16 -42 -39 -33 c-92 -78 -139 -83 -132 -14 4 48 5 47 -126 24 -139
-24 -141 -25 -257 -181 -57 -77 -114 -152 -126 -169 l-22 -29 -25 27 c-14 15
-62 89 -107 164 -77 125 -85 135 -109 131 -14 -3 -32 1 -41 9 -14 13 -24 9
-88 -33 -55 -36 -70 -51 -65 -65 3 -11 -1 -20 -11 -24 -13 -5 -15 -14 -11 -35
9 -45 102 -236 159 -326 l52 -83 235 0 c267 0 255 -3 315 84 21 31 40 56 43
56 3 0 2 -31 -1 -70 l-6 -70 285 0 284 0 -5 23 c-11 46 -21 187 -12 187 18 0
37 -72 37 -140 l0 -70 145 0 145 0 -5 126 c-2 70 -7 134 -10 143 -3 12 9 31
39 59 67 63 79 105 74 259 -4 106 -8 136 -27 176 -13 27 -20 51 -17 54 3 3 24
-12 46 -34 22 -23 40 -36 40 -31 0 13 -68 78 -81 78 -5 0 -9 8 -10 18 0 9 -3
12 -5 5 -4 -9 -15 -8 -46 3 -50 17 -61 11 -20 -10 47 -24 72 -63 72 -110 l0
-40 -30 32 c-27 29 -139 92 -190 105 -27 7 -26 25 3 30 19 4 19 4 -5 6 -15 0
-30 6 -34 13 -5 8 6 10 42 5 37 -4 43 -3 25 4 -29 11 -92 9 -84 -4 3 -5 -1
-13 -8 -18 -10 -6 -8 -9 9 -9 12 0 22 -4 22 -9 0 -14 -97 16 -145 44 -22 13
-51 36 -65 51 l-25 27 40 -22 40 -23 -30 26 c-16 14 -34 26 -40 27 -5 0 -1 4
10 9 15 7 10 9 -25 10 -43 2 -44 2 -19 13 46 21 149 92 154 106 5 13 -12 32
-25 30 -3 -1 -27 -5 -53 -9z m423 -320 c0 -5 -2 -10 -4 -10 -3 0 -8 5 -11 10
-3 6 -1 10 4 10 6 0 11 -4 11 -10z m46 -147 c3 -32 2 -43 -4 -33 -5 8 -12 38
-15 65 -5 35 -4 45 3 33 6 -9 13 -38 16 -65z"/>
<path d="M210 999 c101 -53 176 -106 253 -178 26 -24 50 -42 53 -39 7 7 -87
90 -161 143 -72 52 -204 125 -225 125 -8 0 28 -23 80 -51z"/>
<path d="M716 978 c-3 -18 -7 -103 -10 -188 -2 -85 -2 -123 0 -85 2 39 9 121
15 183 10 110 8 158 -5 90z"/>
<path d="M4795 967 c-44 -23 -107 -61 -141 -84 -70 -48 -177 -143 -169 -151 2
-3 28 17 57 44 84 79 250 188 329 216 7 3 12 8 9 11 -3 3 -41 -13 -85 -36z"/>
<path d="M1932 923 c70 -2 187 -2 260 0 73 1 16 3 -127 3 -143 0 -203 -2 -133
-3z"/>
<path d="M2368 923 c12 -2 32 -2 45 0 12 2 2 4 -23 4 -25 0 -35 -2 -22 -4z"/>
<path d="M2493 923 c20 -2 54 -2 75 0 20 2 3 4 -38 4 -41 0 -58 -2 -37 -4z"/>
<path d="M3588 824 c-20 -10 -28 -22 -28 -40 0 -33 19 -27 44 15 22 39 19 44
-16 25z"/>
<path d="M1888 771 c-64 -13 -128 -61 -161 -120 -57 -101 -33 -235 52 -299 47
-35 51 -41 51 -79 0 -40 4 -40 42 -8 18 15 42 25 62 25 18 0 54 6 80 14 159
48 222 227 130 368 l-24 37 78 4 77 3 -86 2 c-70 2 -95 7 -130 26 -50 28 -116
38 -171 27z m81 -236 l-2 -155 -26 0 -26 0 -3 155 -2 155 30 0 31 0 -2 -155z"/>
<path d="M4390 630 c-6 -11 -8 -20 -6 -20 3 0 10 9 16 20 6 11 8 20 6 20 -3 0
-10 -9 -16 -20z"/>
<path d="M846 579 c-10 -29 -36 -176 -40 -229 -5 -51 -5 -52 4 -15 20 86 49
249 45 254 -3 2 -7 -2 -9 -10z"/>
<path d="M456 505 c76 -52 156 -128 232 -220 33 -39 33 -39 15 -6 -41 76 -271
281 -316 281 -6 0 25 -25 69 -55z"/>
<path d="M4535 468 c-71 -49 -213 -191 -238 -239 l-18 -34 27 35 c56 71 192
199 254 239 35 23 57 41 49 40 -8 0 -41 -18 -74 -41z"/>
<path d="M886 295 c-47 -101 -86 -187 -86 -190 0 -3 59 -5 131 -5 l130 0 65
136 c35 74 62 139 59 143 -2 5 -26 14 -52 20 -27 7 -72 28 -100 47 -29 18 -54
34 -56 34 -3 0 -43 -83 -91 -185z"/>
<path d="M710 415 c0 -5 5 -17 10 -25 5 -8 10 -10 10 -5 0 6 -5 17 -10 25 -5
8 -10 11 -10 5z"/>
<path d="M771 165 c1 -19 18 -51 18 -35 0 8 -4 22 -9 30 -5 8 -9 11 -9 5z"/>
</g>
</svg>
